<?xml version="1.0" encoding="utf-8"?>
<!-- Generator: Adobe Illustrator 26.0.1, SVG Export Plug-In . SVG Version: 6.00 Build 0)  -->
<svg version="1.1" id="Layer_1" xmlns="http://www.w3.org/2000/svg" xmlns:xlink="http://www.w3.org/1999/xlink" x="0px" y="0px"
	 viewBox="0 0 3016.94 1296.3" style="enable-background:new 0 0 3016.94 1296.3;" xml:space="preserve">
<style type="text/css">
	.st0{display:none;}
	.st1{fill:#03B4BC;}
	.st2{fill:#FF9072;}
</style>
<rect x="60.7" y="22.9" class="st0" width="2884.02" height="1186.6"/>
<g>
	<g>
		<g>
			<polygon class="st1" points="603.16,620.65 319.03,620.65 319.03,603.21 585.71,603.21 585.71,344.58 319.03,344.58 
				319.03,327.14 603.16,327.14 			"/>
		</g>
		<g>
			<rect x="241.73" y="327.14" class="st1" width="31.69" height="642.03"/>
		</g>
		<g>
			<polygon class="st1" points="648.77,620.65 648.77,327.14 666.21,327.14 666.21,602.63 934.22,602.63 934.22,327.14 
				951.67,327.14 951.67,620.65 			"/>
		</g>
		<g>
			<polygon class="st1" points="951.67,969.16 648.77,969.16 648.77,951.72 933.07,951.72 933.07,683.7 648.77,683.7 648.77,666.26 
				951.67,666.26 			"/>
		</g>
		<g>
			<polygon class="st1" points="318.98,969.16 603.16,969.16 603.16,951.72 336.43,951.72 336.43,683.7 603.16,683.7 603.16,666.26 
				318.98,666.26 			"/>
		</g>
	</g>
	<g>
		<g>
			<path class="st2" d="M1307.83,538.89c-1.53,39.26-3.07,46.93-12.58,56.13c-11.96,11.35-31.29,14.42-94.48,14.42
				c-80.67,0-102.15-3.07-115.64-16.26c-11.66-11.35-15.95-34.05-15.95-83.44c0-56.75,4.91-80.98,19.02-92.33
				c9.82-7.67,21.47-10.43,52.15-12.27c12.88-0.92,39.88-1.53,56.13-1.53c62.88,0,84.66,3.99,97.85,17.49
				c9.2,9.2,10.43,15.64,11.04,50.92h-25.46v-7.05c-0.31-20.25-3.37-26.38-15.03-30.98c-10.12-3.68-34.05-5.83-69.63-5.83
				c-53.99,0-78.83,2.76-87.12,9.2c-7.67,6.44-11.35,26.07-11.35,61.66c0,16.87,1.84,49.69,3.07,59.82
				c2.45,15.64,9.2,22.09,26.38,23.62c13.5,1.53,41.41,2.45,66.26,2.45c20.24,0,55.83-1.53,63.8-2.76
				c20.55-3.07,24.85-8.59,24.85-34.05l0.31-9.2H1307.83z"/>
			<path class="st2" d="M1486.95,475.09c17.18,11.04,24.23,29.45,24.23,62.58c0,34.36-7.67,53.68-25.46,63.8
				c-12.27,7.06-28.22,9.2-64.42,9.2c-41.72,0-59.2-2.45-72.08-10.12c-18.1-10.43-25.15-28.53-25.15-63.5
				c0-33.74,8.59-53.99,27.3-63.8c11.66-6.13,27.61-8.28,59.82-8.28C1457.2,464.97,1474.68,467.42,1486.95,475.09z M1348,538.58
				c0,29.45,5.83,42.02,22.39,47.85c9.2,3.37,22.7,4.6,49.08,4.6c33.13,0,45.7-2.15,54.91-9.2c9.2-7.36,12.88-19.94,12.88-44.79
				c0-27.91-5.21-40.49-19.63-46.93c-8.59-3.99-23.93-5.52-52.76-5.52C1358.12,484.6,1348,492.88,1348,538.58z"/>
			<path class="st2" d="M1555.35,466.81v18.71c14.11-17.18,23.62-20.55,58.28-20.55c46.32,0,62.27,5.52,73.62,24.85
				c9.2-18.71,25.46-24.85,66.26-24.85c38.65,0,54.91,4.29,66.87,17.18c9.2,10.43,11.04,18.71,11.04,51.84v74.85h-22.39v-79.75
				c0-37.42-8.9-44.48-55.83-44.48c-28.53,0-42.02,3.37-49.69,12.58c-7.98,9.2-10.12,21.17-10.12,55.83v55.83h-22.39v-79.75
				c0-20.55-1.84-28.22-7.67-34.05c-7.97-7.36-21.78-10.43-48.47-10.43c-28.53,0-42.64,3.68-50.92,12.88
				c-7.06,7.98-8.9,20.25-8.9,55.52v55.83h-22.39V466.81H1555.35z"/>
			<path class="st2" d="M1858.09,466.81h22.39v18.4h1.23c10.12-16.56,23.01-20.24,67.79-20.24c39.88,0,56.14,2.45,69.02,10.74
				c17.18,10.74,23.93,28.22,23.93,62.27c0,33.43-7.97,52.76-26.38,63.5c-11.66,6.75-30.06,9.2-69.02,9.2
				c-41.1,0-54.6-3.99-65.34-18.71h-1.23v68.1h-22.39V466.81z M1893.98,492.88c-10.12,7.67-14.11,19.94-14.11,43.56
				c0,46.32,10.12,54.6,66.56,54.6c34.66,0,49.08-2.15,57.97-8.59c10.12-7.36,14.11-19.94,14.11-44.17
				c0-45.09-10.12-53.68-63.8-53.68C1917.6,484.6,1902.57,486.74,1893.98,492.88z"/>
			<path class="st2" d="M2085.38,466.81v71.78c0,26.69,2.15,35.58,10.43,42.95c7.98,6.75,21.17,9.51,47.55,9.51
				c34.05,0,51.53-4.6,61.04-16.87c6.13-7.06,7.98-16.56,7.98-37.12v-70.24h22.39v142.02h-22.39v-21.17h-1.23
				c-11.35,18.1-26.07,23.01-70.24,23.01c-34.97,0-53.07-3.68-64.11-13.5c-10.12-8.9-13.8-22.39-13.8-51.84v-78.53H2085.38z"/>
			<path class="st2" d="M2303.46,431.53v35.27h99.38v19.33h-99.38v61.35c0.61,26.99,0.61,27.91,5.21,33.74
				c5.83,7.05,15.95,9.81,37.42,9.81c19.94,0,27.61-2.15,32.51-9.81c3.37-5.22,4.29-10.43,4.29-27.91v-8.9h22.39v8.9
				c0,22.09-1.84,31.29-7.67,39.88c-8.28,12.58-23.62,17.48-53.68,17.48c-30.37,0-46.62-4.6-54.91-15.95
				c-6.13-8.59-7.98-17.49-7.98-39.88v-68.71h-34.97v-19.33h34.97v-35.27H2303.46z"/>
			<path class="st2" d="M2603.14,564.96c-0.92,34.05-20.86,45.7-78.53,45.7c-49.08,0-70.86-3.37-83.43-13.19
				c-13.5-10.43-20.25-30.06-20.25-59.2c0-34.66,8.28-54.6,26.69-64.72c11.66-6.44,27.91-8.59,62.27-8.59
				c49.08,0,65.95,3.99,79.14,18.71c10.74,12.58,13.8,25.46,14.42,59.2h-158.28c0.61,18.41,3.68,29.45,10.43,36.5
				c8.59,8.9,23.93,11.66,66.56,11.66c32.21,0,44.79-2.45,52.15-10.74c3.68-3.68,4.29-6.13,5.21-15.34H2603.14z M2578.6,523.56
				c-0.31-31.29-14.11-38.96-69.32-38.96c-49.08,0-61.04,7.36-63.5,38.96H2578.6z"/>
			<path class="st2" d="M2646.08,466.81v19.02h1.53c3.68-6.75,9.2-11.66,16.87-15.34c8.59-4.29,20.55-5.52,47.55-5.52
				c27.91,0,39.26,2.45,48.77,10.74c9.51,8.28,14.42,21.78,14.42,40.18v14.72h-23.01v-10.12c0-29.45-7.67-35.89-42.64-35.89
				c-53.99,0-63.5,8.59-63.5,58.59v65.64h-22.39V466.81H2646.08z"/>
			<g>
				<path class="st2" d="M1309.72,820.9c-1.53,39.26-3.07,46.93-12.58,56.13c-11.96,11.35-31.29,14.42-94.48,14.42
					c-80.67,0-102.15-3.07-115.64-16.26c-11.66-11.35-15.95-34.05-15.95-83.44c0-56.75,4.91-80.98,19.02-92.33
					c9.82-7.67,21.47-10.43,52.15-12.27c12.88-0.92,39.88-1.53,56.14-1.53c62.88,0,84.66,3.99,97.85,17.49
					c9.2,9.2,10.43,15.64,11.04,50.92h-25.46v-7.05c-0.31-20.25-3.37-26.38-15.03-30.98c-10.12-3.68-34.05-5.83-69.63-5.83
					c-53.99,0-78.83,2.76-87.11,9.2c-7.67,6.44-11.35,26.07-11.35,61.66c0,16.87,1.84,49.69,3.07,59.82
					c2.45,15.64,9.2,22.09,26.38,23.62c13.5,1.53,41.41,2.45,66.26,2.45c20.25,0,55.83-1.53,63.8-2.76
					c20.55-3.07,24.85-8.59,24.85-34.05l0.31-9.2H1309.72z"/>
				<path class="st2" d="M1352.35,686.24v204.6h-22.39v-204.6H1352.35z"/>
				<path class="st2" d="M1399.58,748.82v71.78c0,26.69,2.15,35.58,10.43,42.95c7.98,6.75,21.17,9.51,47.55,9.51
					c34.05,0,51.53-4.6,61.04-16.87c6.13-7.06,7.98-16.56,7.98-37.12v-70.24h22.39v142.02h-22.39v-21.17h-1.23
					c-11.35,18.1-26.07,23.01-70.24,23.01c-34.97,0-53.07-3.68-64.11-13.5c-10.12-8.9-13.8-22.39-13.8-51.84v-78.53H1399.58z"/>
				<path class="st2" d="M1596.81,686.24v79.45h1.53c10.12-15.34,22.7-19.02,63.19-19.02c48.16,0,62.58,2.45,75.46,12.27
					c15.34,11.96,21.47,29.45,21.47,62.88c0,36.5-9.51,55.52-32.21,64.72c-11.66,4.6-26.07,6.13-61.04,6.13
					c-45.09,0-56.75-3.37-67.48-19.94h-1.23v18.1h-22.09v-204.6H1596.81z M1596.19,819.98c0,29.14,4.6,40.8,18.71,47.24
					c8.59,4.29,25.46,5.83,58.28,5.83c50.31,0,61.35-9.51,61.35-52.76c0-28.53-5.52-42.02-19.33-48.47
					c-8.59-3.99-23.62-5.52-53.37-5.52C1606.01,766.3,1596.19,774.28,1596.19,819.98z"/>
			</g>
		</g>
		<g>
			<path class="st1" d="M1858.42,722.53h7.99v6.6h0.44c3.61-5.94,8.21-7.26,24.2-7.26c14.23,0,20.04,0.88,24.64,3.85
				c6.13,3.85,8.54,10.11,8.54,22.32c0,11.98-2.85,18.91-9.42,22.76c-4.16,2.42-10.73,3.3-24.64,3.3c-14.67,0-19.49-1.43-23.32-6.7
				h-0.44v24.41h-7.99V722.53z M1871.23,731.88c-3.61,2.75-5.04,7.15-5.04,15.61c0,16.6,3.61,19.57,23.76,19.57
				c12.37,0,17.52-0.77,20.69-3.08c3.61-2.64,5.04-7.15,5.04-15.83c0-16.16-3.61-19.24-22.78-19.24
				C1879.66,728.91,1874.3,729.68,1871.23,731.88z"/>
			<path class="st1" d="M1979.3,722.53v6.82h0.55c1.31-2.42,3.28-4.18,6.02-5.5c3.07-1.54,7.34-1.98,16.97-1.98
				c9.96,0,14.02,0.88,17.41,3.85s5.15,7.81,5.15,14.4v5.28h-8.21v-3.63c0-10.55-2.74-12.86-15.22-12.86
				c-19.27,0-22.67,3.08-22.67,21v23.53h-7.99v-50.9H1979.3z"/>
			<path class="st1" d="M2135,757.71c-0.33,12.2-7.45,16.38-28.03,16.38c-17.52,0-25.29-1.21-29.78-4.73
				c-4.82-3.74-7.23-10.77-7.23-21.22c0-12.42,2.96-19.57,9.52-23.19c4.16-2.31,9.96-3.08,22.23-3.08c17.52,0,23.54,1.43,28.25,6.7
				c3.83,4.51,4.93,9.13,5.15,21.22h-56.5c0.22,6.6,1.31,10.55,3.72,13.08c3.07,3.19,8.54,4.18,23.76,4.18
				c11.5,0,15.99-0.88,18.61-3.85c1.31-1.32,1.53-2.2,1.86-5.5H2135z M2126.24,742.87c-0.11-11.21-5.04-13.96-24.74-13.96
				c-17.52,0-21.79,2.64-22.67,13.96H2126.24z"/>
			<path class="st1" d="M2189.86,722.53v6.71c5.04-6.16,8.43-7.37,20.8-7.37c16.53,0,22.23,1.98,26.28,8.91
				c3.29-6.71,9.09-8.91,23.65-8.91c13.8,0,19.6,1.54,23.87,6.16c3.28,3.74,3.94,6.71,3.94,18.58v26.82h-7.99v-28.58
				c0-13.41-3.17-15.94-19.93-15.94c-10.18,0-15,1.21-17.74,4.51c-2.85,3.3-3.61,7.58-3.61,20.01v20.01h-7.99v-28.58
				c0-7.37-0.66-10.11-2.74-12.2c-2.85-2.64-7.77-3.74-17.3-3.74c-10.18,0-15.22,1.32-18.18,4.62c-2.52,2.86-3.18,7.26-3.18,19.9
				v20.01h-7.99v-50.9H2189.86z"/>
			<path class="st1" d="M2344.57,700.11v9.56h-7.99v-9.56H2344.57z M2344.57,722.53v50.9h-7.99v-50.9H2344.57z"/>
			<path class="st1" d="M2457.13,757.71c-0.33,12.2-7.45,16.38-28.03,16.38c-17.52,0-25.29-1.21-29.78-4.73
				c-4.82-3.74-7.23-10.77-7.23-21.22c0-12.42,2.96-19.57,9.53-23.19c4.16-2.31,9.96-3.08,22.23-3.08c17.52,0,23.54,1.43,28.25,6.7
				c3.83,4.51,4.93,9.13,5.15,21.22h-56.5c0.22,6.6,1.31,10.55,3.72,13.08c3.07,3.19,8.54,4.18,23.76,4.18
				c11.5,0,15.99-0.88,18.61-3.85c1.31-1.32,1.53-2.2,1.86-5.5H2457.13z M2448.37,742.87c-0.11-11.21-5.04-13.96-24.74-13.96
				c-17.52,0-21.79,2.64-22.67,13.96H2448.37z"/>
			<path class="st1" d="M2511.88,722.53v6.82h0.55c1.31-2.42,3.28-4.18,6.02-5.5c3.07-1.54,7.34-1.98,16.97-1.98
				c9.96,0,14.02,0.88,17.41,3.85s5.15,7.81,5.15,14.4v5.28h-8.21v-3.63c0-10.55-2.74-12.86-15.22-12.86
				c-19.27,0-22.67,3.08-22.67,21v23.53h-7.99v-50.9H2511.88z"/>
			<path class="st1" d="M1866.08,810.11v25.72c0,9.56,0.77,12.75,3.72,15.39c2.85,2.42,7.55,3.41,16.97,3.41
				c12.15,0,18.4-1.65,21.79-6.05c2.19-2.53,2.85-5.94,2.85-13.3v-25.18h7.99v50.9h-7.99v-7.58h-0.44
				c-4.05,6.48-9.31,8.24-25.07,8.24c-12.48,0-18.94-1.32-22.88-4.84c-3.61-3.19-4.93-8.02-4.93-18.58v-28.14H1866.08z"/>
			<path class="st1" d="M1975.58,810.11v7.69h0.66c3.28-6.59,8.87-8.35,25.51-8.35c14.56,0,20.58,1.32,24.53,5.61
				c3.07,3.41,4.16,7.69,4.16,17.26v28.69h-7.99v-25.29c0-9.12-0.55-12.2-2.85-14.84c-2.63-3.19-7.66-4.4-18.72-4.4
				c-12.48,0-18.83,1.65-22.34,5.94c-2.52,2.97-2.96,5.39-2.96,15.06v23.53h-7.99v-50.9H1975.58z"/>
			<path class="st1" d="M2086.6,787.68v9.56h-7.99v-9.56H2086.6z M2086.6,810.11v50.9h-7.99v-50.9H2086.6z"/>
			<path class="st1" d="M2138.83,810.11l24.53,43.42h0.88l24.64-43.42h9.74l-29.56,50.9h-10.4l-29.23-50.9H2138.83z"/>
			<path class="st1" d="M2303.73,845.29c-0.33,12.2-7.44,16.38-28.03,16.38c-17.52,0-25.29-1.21-29.78-4.73
				c-4.82-3.74-7.23-10.77-7.23-21.22c0-12.42,2.96-19.57,9.52-23.19c4.16-2.31,9.96-3.08,22.23-3.08c17.52,0,23.54,1.43,28.25,6.7
				c3.83,4.51,4.93,9.13,5.15,21.22h-56.5c0.22,6.6,1.31,10.55,3.72,13.08c3.07,3.19,8.54,4.18,23.76,4.18
				c11.5,0,15.99-0.88,18.61-3.85c1.31-1.32,1.53-2.2,1.86-5.5H2303.73z M2294.97,830.45c-0.11-11.21-5.04-13.96-24.74-13.96
				c-17.52,0-21.79,2.64-22.67,13.96H2294.97z"/>
			<path class="st1" d="M2358.48,810.11v6.82h0.55c1.31-2.42,3.28-4.18,6.02-5.5c3.07-1.54,7.34-1.98,16.97-1.98
				c9.96,0,14.01,0.88,17.41,3.85c3.39,2.97,5.15,7.81,5.15,14.4v5.28h-8.21v-3.63c0-10.55-2.74-12.86-15.22-12.86
				c-19.27,0-22.67,3.08-22.67,21v23.53h-7.99v-50.9H2358.48z"/>
			<path class="st1" d="M2457.03,843.31l0.11,1.43c-0.11,9.23,1.64,9.89,24.42,9.89c14.01,0,17.96-0.44,20.37-2.42
				c1.53-1.21,2.19-2.97,2.19-5.5c0-6.05-3.29-8.02-13.47-7.92c-2.19,0-3.83,0-23.21-0.22c-13.36-0.22-18.07-3.85-18.07-14.07
				c0-5.5,1.75-9.34,5.36-11.76c3.61-2.31,11.17-3.3,26.06-3.3c17.08,0,23.98,1.54,27.7,6.38c1.86,2.31,2.3,3.96,2.3,10h-8.54
				c0-3.74-0.33-5.06-1.53-6.16c-2.19-2.31-8.21-3.19-20.26-3.19c-11.28,0-17.96,0.77-20.26,2.53c-1.53,1.1-2.3,2.97-2.3,5.61
				c0,5.6,2.96,6.93,15.11,6.7c3.4-0.11,18.07,0.22,23.32,0.44c11.61,0.44,16.31,4.84,16.31,14.84c0,6.27-1.86,10.01-6.02,12.31
				c-3.61,1.98-10.95,2.75-25.4,2.75c-17.3,0-24.2-0.88-28.03-3.74c-3.5-2.53-4.71-5.72-4.71-11.98v-2.64H2457.03z"/>
			<path class="st1" d="M2567.62,787.68v9.56h-7.99v-9.56H2567.62z M2567.62,810.11v50.9h-7.99v-50.9H2567.62z"/>
			<path class="st1" d="M2632,797.47v12.64h35.48v6.93H2632v21.99c0.22,9.68,0.22,10,1.86,12.09c2.08,2.53,5.69,3.52,13.36,3.52
				c7.12,0,9.85-0.77,11.61-3.52c1.2-1.87,1.53-3.74,1.53-10.01v-3.19h7.99v3.19c0,7.92-0.66,11.21-2.74,14.29
				c-2.96,4.51-8.43,6.27-19.16,6.27c-10.84,0-16.64-1.65-19.6-5.72c-2.19-3.08-2.85-6.27-2.85-14.29v-24.63h-12.48v-6.93h12.48
				v-12.64H2632z"/>
			<path class="st1" d="M2717.51,810.11l24.53,44.41h0.98l22.77-44.41h9.42l-24.74,47.49c-5.8,11.21-8.43,14.84-12.48,17.7
				c-3.83,2.64-7.66,3.52-15.99,3.52c-1.75,0-2.74,0-4.49-0.11v-7.36c1.64,0.22,2.19,0.22,3.72,0.22c10.62,0,13.36-1.65,18.18-10.55
				h-2.74l-28.58-50.9H2717.51z"/>
		</g>
	</g>
</g>
</svg>
